<?xml version="1.0" encoding="utf-8"?>
<!-- Generator: Adobe Illustrator 16.0.0, SVG Export Plug-In . SVG Version: 6.00 Build 0)  -->
<!DOCTYPE svg PUBLIC "-//W3C//DTD SVG 1.1//EN" "http://www.w3.org/Graphics/SVG/1.1/DTD/svg11.dtd">
<svg version="1.1" id="Layer_1" xmlns="http://www.w3.org/2000/svg" xmlns:xlink="http://www.w3.org/1999/xlink" x="0px" y="0px"
	 width="419.18px" height="83.646px" viewBox="0 0 419.18 83.646" enable-background="new 0 0 419.18 83.646" xml:space="preserve">
<g display="none">
	<path display="inline" d="M306.611,138.603c0,3.153-0.604,6.014-1.813,8.569c-1.209,2.56-2.929,4.75-5.152,6.572
		c-2.228,1.819-4.916,3.229-8.068,4.229c-3.154,0.998-6.679,1.498-10.568,1.498c-2.067,0-4.196-0.123-6.388-0.367
		c-2.189-0.246-4.354-0.588-6.493-1.022c-2.141-0.438-4.188-0.976-6.15-1.604s-3.73-1.351-5.312-2.156l3.786-11.354
		c1.717,0.563,3.391,1.076,5.021,1.553c1.63,0.474,3.251,0.885,4.862,1.232c1.61,0.354,3.231,0.623,4.861,0.813
		c1.632,0.192,3.306,0.291,5.021,0.291c3.295,0,5.837-0.689,7.623-2.078c1.788-1.383,2.683-3.338,2.683-5.859
		c0-1.263-0.298-2.398-0.895-3.418c-0.597-1.018-1.455-1.938-2.575-2.761c-1.122-0.823-2.473-1.587-4.05-2.286
		c-1.577-0.701-3.33-1.367-5.257-1.998c-3.228-1.086-6.137-2.295-8.729-3.627c-2.595-1.332-4.803-2.867-6.624-4.604
		c-1.823-1.732-3.231-3.697-4.23-5.89c-0.999-2.188-1.499-4.67-1.499-7.438c0-3.152,0.604-6.021,1.813-8.596
		s2.926-4.785,5.151-6.625c2.227-1.84,4.907-3.268,8.044-4.285c3.138-1.016,6.651-1.523,10.542-1.523c2.174,0,4.338,0.168,6.493,0.5
		c2.153,0.334,4.214,0.754,6.179,1.262c1.962,0.509,3.768,1.078,5.415,1.709c1.646,0.631,3.05,1.263,4.206,1.894l-2.944,11.408
		c-1.753-0.596-3.399-1.146-4.94-1.656c-1.542-0.506-3.05-0.944-4.521-1.313c-1.473-0.37-2.942-0.658-4.416-0.868
		s-2.997-0.315-4.574-0.315c-3.47,0-6.056,0.736-7.755,2.209c-1.699,1.474-2.55,3.365-2.55,5.681c0,1.121,0.21,2.164,0.631,3.127
		c0.42,0.965,1.086,1.867,1.998,2.709c0.911,0.841,2.085,1.621,3.521,2.34c1.438,0.72,3.188,1.41,5.258,2.076
		c3.995,1.263,7.413,2.608,10.253,4.049c2.839,1.438,5.15,3.031,6.938,4.783c1.787,1.754,3.104,3.707,3.943,5.86
		C306.19,133.478,306.611,135.903,306.611,138.603z"/>
	<path display="inline" d="M348.515,98.485v59.938h-15.721V98.485H312.5V86.92h56.256v11.564H348.515z"/>
	<path display="inline" d="M408.661,98.485v59.938H392.94V98.485h-20.294V86.92h56.257v11.564H408.661z"/>
	<path display="inline" d="M464.71,86.92h24.553c4.102,0,7.755,0.455,10.962,1.367c3.207,0.91,5.934,2.207,8.177,3.891
		c2.242,1.683,3.95,3.697,5.126,6.046c1.174,2.352,1.762,4.961,1.762,7.834c0,2.032-0.271,3.873-0.813,5.521
		c-0.542,1.647-1.229,3.109-2.05,4.391c-0.824,1.279-1.729,2.393-2.708,3.34c-0.98,0.945-1.93,1.732-2.839,2.363
		c4.238,1.193,7.533,3.184,9.884,5.969c2.35,2.785,3.521,6.318,3.521,10.596c0,3.017-0.631,5.767-1.895,8.255
		c-1.263,2.489-3.074,4.618-5.44,6.389c-2.364,1.771-5.229,3.138-8.596,4.101c-3.365,0.965-7.15,1.446-11.356,1.446h-28.284
		L464.71,86.92L464.71,86.92z M480.429,99.013v17.612h16.299c0.701-0.979,1.35-2.242,1.945-3.785s0.895-3.313,0.895-5.313
		c0-2.803-0.955-4.924-2.865-6.358c-1.909-1.438-4.671-2.155-8.278-2.155H480.429z M480.429,127.456v18.875h11.409
		c1.963,0,3.75-0.187,5.361-0.554c1.61-0.366,2.986-0.92,4.127-1.653c1.141-0.735,2.023-1.687,2.655-2.84
		c0.631-1.156,0.945-2.523,0.945-4.103c0-3.188-0.98-5.606-2.943-7.258c-1.965-1.646-4.854-2.471-8.676-2.471L480.429,127.456
		L480.429,127.456z"/>
	<path display="inline" d="M574.278,143.493h-25.813l-4.838,14.932H528.17l24.656-71.504h17.087l24.711,71.504h-15.455
		L574.278,143.493z M552.196,131.924h18.352l-9.201-28.18L552.196,131.924z"/>
	<path display="inline" d="M605.034,86.92h15.667v0.054l0.055-0.054l30.547,48.211V86.92h15.722v71.504h-15.722l-30.602-48.317
		v48.317h-15.667V86.92z"/>
	<path display="inline" d="M682.742,86.92h24.026c5.396,0,10.286,0.851,14.669,2.549c4.382,1.701,8.113,4.103,11.198,7.203
		c3.084,3.103,5.459,6.845,7.124,11.226c1.664,4.385,2.497,9.271,2.497,14.67c0,5.397-0.833,10.299-2.497,14.695
		c-1.665,4.397-4.04,8.166-7.124,11.303c-3.085,3.141-6.816,5.565-11.198,7.283c-4.383,1.717-9.271,2.575-14.669,2.575h-24.026
		V86.92z M698.464,98.381v48.581h7.148c3.084,0,5.896-0.476,8.438-1.418c2.541-0.946,4.706-2.42,6.492-4.418
		c1.788-1.998,3.173-4.528,4.152-7.599c0.98-3.065,1.475-6.721,1.475-10.963c0-4.237-0.491-7.887-1.475-10.936
		c-0.979-3.051-2.364-5.558-4.152-7.521c-1.786-1.963-3.951-3.406-6.492-4.338c-2.542-0.929-5.354-1.394-8.438-1.394h-7.148V98.381z
		"/>
	<path display="inline" d="M799.198,86.92h15.668v48.58c0,3.817-0.719,7.211-2.153,10.174c-1.438,2.964-3.472,5.468-6.101,7.519
		c-2.629,2.053-5.773,3.611-9.438,4.682c-3.664,1.067-7.723,1.604-12.172,1.604c-4.416,0-8.447-0.543-12.095-1.629
		c-3.646-1.086-6.771-2.664-9.385-4.729c-2.612-2.068-4.637-4.604-6.072-7.601c-1.438-2.996-2.153-6.404-2.153-10.227V86.92h15.72
		v48.37c0,2.067,0.343,3.897,1.023,5.494c0.685,1.596,1.646,2.928,2.894,3.993c1.244,1.07,2.717,1.875,4.417,2.423
		c1.699,0.543,3.583,0.813,5.65,0.813c2.104,0,4.021-0.271,5.758-0.813c1.733-0.548,3.232-1.353,4.496-2.423
		c1.262-1.065,2.232-2.397,2.918-3.993c0.685-1.597,1.022-3.427,1.022-5.494L799.198,86.92L799.198,86.92z"/>
	<path display="inline" d="M830.589,86.92h15.667v0.054l0.053-0.054l30.547,48.211V86.92h15.722v71.504h-15.722l-30.6-48.317v48.317
		h-15.667V86.92z"/>
	<path display="inline" d="M938.578,119.308h27.604v34.909c-3.715,1.685-7.563,2.979-11.54,3.892
		c-3.979,0.912-8.315,1.367-13.013,1.367c-5.573,0-10.577-0.979-15.013-2.941c-4.436-1.965-8.186-4.627-11.251-7.992
		s-5.416-7.273-7.046-11.727c-1.629-4.449-2.442-9.166-2.442-14.144c0-5.223,0.885-10.077,2.653-14.563
		c1.771-4.484,4.303-8.377,7.599-11.672c3.295-3.295,7.31-5.879,12.04-7.756c4.73-1.873,10.076-2.813,16.035-2.813
		c3.854,0,7.31,0.334,10.355,1c3.051,0.666,5.68,1.489,7.888,2.471l-2.262,10.567c-1.997-0.665-4.303-1.262-6.913-1.787
		c-2.611-0.526-5.478-0.788-8.597-0.788c-3.683,0-6.959,0.569-9.832,1.708c-2.875,1.14-5.293,2.786-7.256,4.941
		c-1.963,2.156-3.462,4.812-4.495,7.965c-1.034,3.154-1.551,6.729-1.551,10.728c0,3.608,0.473,6.957,1.419,10.041
		c0.946,3.086,2.331,5.759,4.152,8.021c1.82,2.262,4.064,4.039,6.729,5.336c2.663,1.299,5.713,1.945,9.147,1.945
		c1.576,0,3.103-0.089,4.573-0.265c1.474-0.174,2.872-0.474,4.205-0.894v-16.09h-13.196v-11.461L938.578,119.308L938.578,119.308z"
		/>
</g>
<g>
	<path fill="#30528E" d="M414.421,13.028c-17.836-0.855-25.096,7.151-26.291,7.958c-1.194-0.807-8.456-8.812-26.292-7.957
		c-0.016,0.001-3.676,3.795-3.676,3.795c22.378-0.196,29.968,7.917,29.968,7.917s7.59-8.113,29.966-7.917
		C418.097,16.823,414.437,13.029,414.421,13.028z"/>
	<path fill="#30528E" d="M409.895,7.963c-14.764-0.708-20.776,5.919-21.765,6.587c-0.99-0.668-7.003-7.296-21.766-6.587
		c-0.014,0-3.043,3.143-3.043,3.143c18.525-0.162,24.809,6.554,24.809,6.554s6.282-6.716,24.808-6.554
		C412.938,11.105,409.908,7.963,409.895,7.963z"/>
	<path fill="#30528E" d="M405.771,3.182C393.805,2.608,388.93,7.98,388.129,8.52c-0.802-0.541-5.673-5.913-17.638-5.338
		c-0.013,0-2.468,2.547-2.468,2.547c15.015-0.132,20.105,5.312,20.105,5.312s5.09-5.444,20.105-5.312
		C408.235,5.727,405.78,3.182,405.771,3.182z"/>
	<circle cx="388.13" cy="39.802" r="9.684"/>
	<path fill="#5CB85C" d="M405.747,25.403v18.602c0,5.236-3.05,9.479-6.812,9.479h-10.723h-0.167h-10.724
		c-3.761,0-6.811-4.242-6.811-9.479V25.403c0-2.922-5.856-8.181-12.433-7.394v32.479c0,5.964,5.219,10.796,11.657,10.796h18.31
		h0.167h18.311c6.437,0,11.656-4.835,11.656-10.796V18.008C411.603,17.221,405.747,22.48,405.747,25.403z"/>
</g>
<g>
	<path d="M368.093,74.084c0.773,0.398,1.964,0.794,3.19,0.794c1.324,0,2.021-0.548,2.021-1.377c0-0.795-0.604-1.248-2.133-1.795
		c-2.115-0.736-3.496-1.907-3.496-3.76c0-2.171,1.814-3.834,4.816-3.834c1.437,0,2.494,0.304,3.25,0.643l-0.643,2.321
		c-0.509-0.245-1.417-0.603-2.663-0.603c-1.245,0-1.851,0.565-1.851,1.227c0,0.813,0.718,1.171,2.36,1.794
		c2.249,0.832,3.307,2.003,3.307,3.799c0,2.132-1.645,3.945-5.139,3.945c-1.455,0-2.888-0.378-3.607-0.773L368.093,74.084z"/>
	<path d="M380.652,66.737h-3.418v-2.418h9.783v2.418h-3.474V77.05h-2.892V66.737z"/>
	<path d="M391.416,66.737h-3.42v-2.418h9.785v2.418h-3.476V77.05h-2.89V66.737L391.416,66.737z"/>
	<path d="M399.31,64.49c0.756-0.151,2.285-0.263,3.721-0.263c1.755,0,2.832,0.169,3.758,0.717c0.889,0.472,1.529,1.34,1.529,2.493
		c0,1.133-0.66,2.19-2.097,2.721v0.037c1.457,0.398,2.531,1.492,2.531,3.134c0,1.154-0.527,2.061-1.323,2.702
		c-0.925,0.737-2.474,1.152-5.006,1.152c-1.416,0-2.471-0.094-3.114-0.189L399.31,64.49L399.31,64.49z M402.162,69.361h0.945
		c1.509,0,2.322-0.622,2.322-1.565c0-0.964-0.736-1.475-2.041-1.475c-0.623,0-0.981,0.038-1.227,0.075V69.361L402.162,69.361z
		 M402.162,75.01c0.282,0.037,0.623,0.037,1.115,0.037c1.303,0,2.454-0.49,2.454-1.831c0-1.284-1.151-1.795-2.588-1.795h-0.981
		V75.01L402.162,75.01z"/>
</g>
<g display="none">
	<path display="inline" fill="#232323" d="M16.68,19.126c1.611,0,2.747,0.163,3.407,0.486c0.66,0.325,0.99,0.723,0.99,1.192
		c0,0.246-0.051,0.509-0.15,0.789c-0.101,0.28-0.274,0.543-0.521,0.789c-0.245-0.179-0.659-0.364-1.241-0.554
		s-1.266-0.285-2.048-0.285c-1.008,0-1.803,0.207-2.384,0.621c-0.583,0.415-0.873,0.979-0.873,1.694
		c0,0.627,0.128,1.188,0.387,1.679c0.257,0.492,0.644,1.041,1.157,1.645l3.626,4.129c0.426,0.516,0.783,1.002,1.074,1.46
		c0.29,0.459,0.525,0.918,0.704,1.376c0.18,0.459,0.303,0.918,0.37,1.376c0.066,0.459,0.101,0.946,0.101,1.46
		c0,0.852-0.101,1.657-0.303,2.417c-0.201,0.762-0.531,1.434-0.99,2.015c-0.459,0.583-1.073,1.041-1.846,1.376
		c-0.771,0.336-1.729,0.504-2.87,0.504c-1.521,0-2.636-0.218-3.341-0.655c-0.705-0.437-1.058-0.89-1.058-1.36
		c0-0.269,0.056-0.582,0.168-0.939c0.111-0.357,0.291-0.693,0.537-1.007c0.357,0.313,0.821,0.587,1.394,0.821
		c0.57,0.235,1.259,0.354,2.064,0.354c1.208,0,2.059-0.313,2.551-0.94c0.492-0.626,0.739-1.455,0.739-2.483
		c0-0.762-0.142-1.466-0.421-2.115s-0.788-1.398-1.526-2.249l-3.392-3.928c-0.761-0.94-1.298-1.784-1.61-2.534
		c-0.313-0.75-0.471-1.516-0.471-2.3c0-1.41,0.486-2.568,1.461-3.476C13.34,19.579,14.778,19.126,16.68,19.126z"/>
	<path display="inline" fill="#232323" d="M29.033,25.84c2.842,0,4.264,1.802,4.264,5.405c0,0.738-0.028,1.5-0.084,2.282
		c-0.058,0.784-0.151,1.478-0.285,2.082c-0.583,0.112-1.198,0.201-1.847,0.27c-0.649,0.066-1.292,0.123-1.932,0.167
		c-0.638,0.045-1.235,0.073-1.796,0.084c-0.56,0.012-1.04,0.017-1.442,0.017c0.021,0.896,0.105,1.634,0.252,2.215
		c0.146,0.583,0.341,1.041,0.588,1.376c0.245,0.335,0.559,0.571,0.938,0.705c0.38,0.135,0.828,0.201,1.344,0.201
		c0.672,0,1.33-0.095,1.979-0.285c0.649-0.189,1.265-0.441,1.847-0.755c0.09,0.247,0.151,0.549,0.186,0.906
		c0.033,0.358,0.05,0.671,0.05,0.94c0,0.269-0.123,0.515-0.369,0.738c-0.246,0.225-0.582,0.419-1.007,0.587
		s-0.918,0.296-1.477,0.387c-0.562,0.089-1.153,0.134-1.779,0.134c-0.784,0-1.506-0.102-2.166-0.302
		c-0.66-0.202-1.226-0.588-1.694-1.158c-0.471-0.571-0.84-1.371-1.107-2.4c-0.27-1.029-0.402-2.36-0.402-3.995
		c0-2.104,0.173-3.788,0.52-5.052c0.348-1.264,0.796-2.232,1.344-2.904c0.549-0.671,1.181-1.112,1.896-1.325
		C27.568,25.946,28.295,25.84,29.033,25.84z M28.732,28.223c-0.336,0-0.661,0.084-0.974,0.252c-0.313,0.168-0.6,0.47-0.856,0.906
		s-0.47,1.019-0.638,1.746s-0.273,1.662-0.318,2.803c0.313,0,0.672,0,1.074,0s0.812-0.017,1.226-0.05s0.816-0.072,1.209-0.118
		c0.391-0.044,0.731-0.112,1.022-0.201c0.067-0.313,0.112-0.648,0.135-1.007c0.021-0.357,0.033-0.693,0.033-1.007
		c-0.021-1.208-0.168-2.064-0.437-2.568S29.448,28.223,28.732,28.223z"/>
	<path display="inline" fill="#232323" d="M35.713,19.529c0-0.313,0.039-0.554,0.118-0.722c0.078-0.168,0.218-0.291,0.419-0.369
		c0.202-0.078,0.48-0.123,0.84-0.134c0.356-0.011,0.815-0.017,1.376-0.017v9.098c0.56-0.47,1.22-0.845,1.979-1.125
		c0.761-0.28,1.499-0.42,2.217-0.42c0.56,0,1.019,0.079,1.376,0.235s0.648,0.369,0.873,0.638c0.224,0.268,0.381,0.576,0.47,0.923
		c0.09,0.347,0.135,0.711,0.135,1.091c0,0.694-0.105,1.326-0.319,1.896c-0.213,0.569-0.465,1.073-0.755,1.511
		c-0.291,0.437-0.6,0.806-0.923,1.108c-0.325,0.302-0.588,0.531-0.789,0.688c0.807,0.358,1.527,1.007,2.165,1.947
		c0.639,0.939,1.023,2.182,1.158,3.726c0.021,0.18,0.033,0.358,0.033,0.537s0,0.369,0,0.571c0,0.537-0.033,1.106-0.102,1.712
		c-0.021,0.134-0.05,0.241-0.084,0.319c-0.032,0.078-0.149,0.134-0.353,0.168c-0.201,0.033-0.503,0.05-0.906,0.05
		c-0.401,0-0.984,0-1.745,0c0.044-0.38,0.078-0.75,0.102-1.108c0.021-0.356,0.032-0.705,0.032-1.041c0-0.38-0.017-0.727-0.05-1.041
		c-0.034-0.313-0.072-0.626-0.118-0.939c-0.2-1.344-0.575-2.288-1.124-2.837s-1.146-0.756-1.796-0.621
		c-0.156,0.045-0.318,0.101-0.486,0.168c-0.168,0.066-0.33,0.134-0.486,0.202c-0.18,0.089-0.348,0.179-0.504,0.269v6.412
		c0,0.134-0.012,0.241-0.033,0.319s-0.118,0.134-0.286,0.168c-0.167,0.033-0.44,0.05-0.821,0.05c-0.382,0-0.918,0-1.611,0
		L35.713,19.529L35.713,19.529z M42.494,29.667c0-0.917-0.414-1.376-1.242-1.376c-0.447,0-0.912,0.134-1.394,0.402
		c-0.48,0.27-0.945,0.671-1.394,1.208v4.163c1.163-0.47,2.126-1.058,2.887-1.762C42.114,31.597,42.494,30.719,42.494,29.667z"/>
	<path display="inline" fill="#232323" d="M47.531,34.568c0-3.065,0.486-5.287,1.461-6.664c0.974-1.376,2.345-2.063,4.111-2.063
		c0.873,0,1.641,0.129,2.3,0.386c0.66,0.257,1.203,0.716,1.628,1.376c0.426,0.66,0.744,1.544,0.957,2.652
		c0.213,1.107,0.319,2.512,0.319,4.213c0,3.134-0.471,5.388-1.41,6.764s-2.306,2.065-4.096,2.065c-0.873,0-1.634-0.102-2.283-0.302
		c-0.648-0.202-1.197-0.61-1.645-1.227c-0.448-0.615-0.783-1.499-1.007-2.651C47.642,37.964,47.531,36.448,47.531,34.568z
		 M50.485,34.635c0,1.388,0.052,2.496,0.151,3.323c0.101,0.828,0.252,1.466,0.453,1.914c0.201,0.447,0.453,0.744,0.755,0.89
		c0.303,0.146,0.644,0.218,1.024,0.218c0.356,0,0.688-0.089,0.989-0.269c0.303-0.18,0.564-0.516,0.789-1.007
		c0.224-0.492,0.396-1.152,0.521-1.98c0.123-0.828,0.185-1.902,0.185-3.223c0-1.343-0.05-2.422-0.149-3.24
		c-0.102-0.816-0.247-1.449-0.438-1.896c-0.189-0.446-0.432-0.75-0.722-0.905c-0.291-0.156-0.639-0.235-1.041-0.235
		c-0.381,0-0.723,0.09-1.023,0.27c-0.303,0.18-0.564,0.504-0.789,0.974c-0.224,0.47-0.396,1.125-0.521,1.964
		S50.485,33.337,50.485,34.635z"/>
	<path display="inline" fill="#232323" d="M63.342,42.423c0,0.134-0.018,0.241-0.051,0.319s-0.134,0.134-0.303,0.168
		c-0.168,0.033-0.437,0.05-0.806,0.05s-0.89,0-1.562,0V19.529c0-0.313,0.039-0.554,0.117-0.722s0.219-0.291,0.42-0.369
		s0.48-0.123,0.84-0.134c0.356-0.011,0.806-0.017,1.343-0.017L63.342,42.423L63.342,42.423z"/>
	<path display="inline" fill="#232323" d="M65.892,27.686c0-0.179,0.028-0.352,0.084-0.52c0.057-0.168,0.151-0.309,0.285-0.42
		c0.291-0.18,0.896-0.375,1.813-0.587c0.917-0.213,2.014-0.319,3.288-0.319c1.455,0,2.514,0.302,3.174,0.906
		c0.659,0.604,0.989,1.667,0.989,3.188v1.779c0,0.962,0,1.93,0,2.903s-0.012,1.913-0.032,2.819
		c-0.022,0.906-0.047,1.763-0.067,2.568c-0.022,0.806-0.057,1.521-0.101,2.147c-0.448,0.27-1.063,0.526-1.848,0.772
		s-1.724,0.37-2.818,0.37c-0.604,0-1.198-0.045-1.779-0.134c-0.583-0.091-1.097-0.313-1.545-0.673
		c-0.447-0.356-0.807-0.878-1.074-1.561s-0.402-1.595-0.402-2.736c0-1.163,0.128-2.103,0.387-2.819
		c0.257-0.717,0.593-1.275,1.007-1.679c0.414-0.402,0.89-0.671,1.427-0.806s1.086-0.202,1.646-0.202c0.38,0,0.8,0.028,1.259,0.084
		c0.458,0.057,0.854,0.174,1.19,0.354v-2.652c0-0.783-0.179-1.31-0.537-1.578c-0.357-0.268-0.872-0.403-1.544-0.403
		c-0.851,0-1.679,0.073-2.483,0.219c-0.807,0.146-1.455,0.318-1.947,0.521c-0.156-0.269-0.257-0.542-0.302-0.822
		C65.916,28.127,65.892,27.888,65.892,27.686z M72.774,35.038c-0.224-0.112-0.48-0.19-0.771-0.235
		c-0.292-0.045-0.562-0.067-0.807-0.067c-0.336,0-0.654,0.04-0.956,0.118c-0.304,0.079-0.565,0.241-0.789,0.487
		c-0.225,0.246-0.402,0.587-0.537,1.022c-0.135,0.438-0.201,1.024-0.201,1.764c0,0.604,0.05,1.097,0.149,1.477
		c0.103,0.381,0.246,0.677,0.438,0.891c0.19,0.213,0.42,0.353,0.688,0.419c0.27,0.066,0.57,0.101,0.906,0.101
		c0.381,0,0.733-0.055,1.059-0.167c0.323-0.112,0.563-0.246,0.722-0.403c0.021-0.269,0.039-0.621,0.051-1.058
		c0.011-0.437,0.021-0.9,0.033-1.393c0.011-0.492,0.017-0.996,0.017-1.512C72.774,35.967,72.774,35.486,72.774,35.038z"/>
	<path display="inline" fill="#232323" d="M78.28,19.529c0-0.313,0.033-0.554,0.102-0.722s0.201-0.291,0.403-0.369
		c0.2-0.078,0.479-0.123,0.839-0.134c0.356-0.011,0.815-0.017,1.376-0.017v8.861c0.515-0.446,1.107-0.776,1.778-0.989
		c0.673-0.213,1.331-0.319,1.98-0.319c0.716,0,1.304,0.101,1.763,0.302c0.458,0.201,0.816,0.487,1.074,0.856
		c0.257,0.369,0.431,0.834,0.521,1.393c0.089,0.561,0.134,1.188,0.134,1.88v12.152c0,0.134-0.022,0.241-0.066,0.319
		c-0.046,0.078-0.157,0.134-0.336,0.168c-0.18,0.033-0.459,0.05-0.84,0.05c-0.38,0-0.906,0-1.577,0V31.043
		c0-0.357-0.021-0.705-0.066-1.041c-0.046-0.335-0.135-0.621-0.27-0.856c-0.134-0.234-0.33-0.425-0.587-0.57
		c-0.258-0.146-0.588-0.219-0.991-0.219c-0.38,0-0.794,0.067-1.241,0.202c-0.447,0.134-0.873,0.381-1.275,0.738v13.126
		c0,0.134-0.018,0.241-0.05,0.319c-0.034,0.078-0.136,0.134-0.304,0.168c-0.168,0.033-0.437,0.05-0.806,0.05s-0.89,0-1.561,0
		L78.28,19.529L78.28,19.529z"/>
	<path display="inline" fill="#232323" d="M102.348,22.013v20.41c0,0.134-0.017,0.241-0.05,0.319s-0.135,0.134-0.302,0.168
		c-0.168,0.033-0.438,0.05-0.807,0.05c-0.37,0-0.89,0-1.562,0V22.013h-4.565v-1.98c0-0.381,0.189-0.571,0.57-0.571h11.414v2.015
		c0,0.358-0.19,0.537-0.57,0.537H102.348z"/>
	<path display="inline" fill="#232323" d="M111.11,42.423c0,0.134-0.017,0.241-0.05,0.319c-0.034,0.078-0.141,0.134-0.318,0.168
		c-0.179,0.033-0.453,0.05-0.822,0.05s-0.901,0-1.595,0V27.417c0-0.313,0.038-0.555,0.117-0.723
		c0.078-0.167,0.224-0.291,0.437-0.368c0.213-0.078,0.498-0.123,0.855-0.135c0.357-0.011,0.816-0.017,1.376-0.017V42.423z
		 M108.358,20.838c0.021-0.604,0.156-1.091,0.402-1.46c0.246-0.37,0.638-0.554,1.175-0.554c0.516,0,0.873,0.146,1.074,0.437
		c0.202,0.291,0.291,0.794,0.269,1.511c0,0.694-0.129,1.231-0.386,1.611c-0.258,0.381-0.644,0.571-1.158,0.571
		c-0.447,0-0.789-0.157-1.022-0.471C108.475,22.17,108.358,21.622,108.358,20.838z"/>
	<path display="inline" fill="#232323" d="M114.164,26.981c0.336-0.134,0.716-0.273,1.142-0.42c0.425-0.145,0.872-0.269,1.343-0.369
		s0.945-0.185,1.428-0.252c0.479-0.066,0.944-0.101,1.393-0.101c1.768,0,2.999,0.341,3.692,1.023
		c0.693,0.684,1.041,1.842,1.041,3.476v12.085c0,0.134-0.018,0.241-0.051,0.319s-0.141,0.134-0.318,0.168
		c-0.181,0.033-0.459,0.05-0.839,0.05c-0.382,0-0.918,0-1.611,0V31.144c0-1.074-0.124-1.83-0.37-2.266
		c-0.246-0.437-0.794-0.655-1.645-0.655c-0.358,0-0.768,0.051-1.227,0.151c-0.459,0.1-0.878,0.251-1.259,0.453v13.596
		c0,0.134-0.017,0.241-0.05,0.319c-0.034,0.078-0.142,0.134-0.319,0.168c-0.18,0.033-0.448,0.05-0.806,0.05
		c-0.358,0-0.873,0-1.544,0V26.981z"/>
	<path display="inline" fill="#232323" d="M132.359,25.84c0.225,0,0.486,0.021,0.789,0.067c0.303,0.045,0.6,0.111,0.891,0.2h4.027
		c0.067,0.112,0.128,0.28,0.186,0.503c0.056,0.225,0.084,0.493,0.084,0.807c0,0.693-0.313,1.041-0.94,1.041
		c-0.313,0-0.716-0.057-1.208-0.168c0.38,0.381,0.688,0.873,0.923,1.477c0.235,0.604,0.354,1.321,0.354,2.148
		c0,1.791-0.42,3.217-1.259,4.279c-0.839,1.063-2.232,1.595-4.181,1.595c-0.627,0-1.13-0.044-1.511-0.135
		c-0.224,0.225-0.425,0.471-0.604,0.739c-0.181,0.27-0.27,0.516-0.27,0.738c0,0.157,0.102,0.286,0.302,0.386
		c0.201,0.101,0.48,0.186,0.84,0.252c0.357,0.067,0.776,0.134,1.259,0.201c0.48,0.067,1.002,0.134,1.562,0.202
		c0.671,0.112,1.275,0.251,1.813,0.419s1.001,0.403,1.394,0.705c0.392,0.302,0.693,0.677,0.906,1.125
		c0.212,0.448,0.318,1.007,0.318,1.679c0,0.716-0.123,1.404-0.369,2.064s-0.633,1.242-1.158,1.746
		c-0.525,0.503-1.197,0.905-2.014,1.208c-0.817,0.302-1.785,0.452-2.904,0.452s-2.03-0.105-2.735-0.318s-1.254-0.499-1.646-0.856
		c-0.393-0.357-0.654-0.75-0.788-1.175c-0.135-0.425-0.202-0.862-0.202-1.309c0-0.828,0.246-1.583,0.739-2.267
		c0.49-0.683,1.096-1.27,1.813-1.762c-0.648-0.179-1.158-0.419-1.526-0.722c-0.369-0.304-0.543-0.678-0.521-1.125
		c0.021-0.448,0.224-0.936,0.604-1.46c0.38-0.525,0.895-1.046,1.544-1.562c-0.784-0.515-1.326-1.214-1.628-2.098
		c-0.304-0.884-0.453-1.863-0.453-2.938c0-1.119,0.134-2.069,0.401-2.854c0.27-0.783,0.649-1.416,1.143-1.897
		c0.492-0.48,1.079-0.833,1.763-1.057C130.775,25.952,131.531,25.84,132.359,25.84z M131.452,42.323
		c-0.112,0-0.214-0.005-0.304-0.017c-0.089-0.011-0.189-0.028-0.302-0.05c-0.492,0.381-0.918,0.839-1.275,1.376
		s-0.536,1.085-0.536,1.645c0,0.27,0.039,0.51,0.116,0.723c0.078,0.212,0.22,0.396,0.42,0.554c0.201,0.156,0.486,0.28,0.855,0.37
		c0.369,0.089,0.845,0.134,1.427,0.134c0.604,0,1.119-0.079,1.545-0.235s0.777-0.363,1.058-0.62c0.279-0.258,0.486-0.537,0.621-0.84
		c0.135-0.302,0.201-0.599,0.201-0.89c0-0.381-0.063-0.694-0.185-0.939c-0.124-0.247-0.331-0.453-0.621-0.621
		c-0.292-0.168-0.684-0.297-1.176-0.387C132.806,42.435,132.191,42.368,131.452,42.323z M132.258,27.854
		c-0.717,0-1.326,0.309-1.83,0.923c-0.503,0.616-0.755,1.662-0.755,3.14c0,0.604,0.033,1.142,0.101,1.61
		c0.067,0.471,0.189,0.868,0.369,1.192c0.179,0.325,0.432,0.57,0.756,0.738s0.743,0.252,1.26,0.252c0.895,0,1.544-0.369,1.945-1.108
		c0.403-0.738,0.604-1.846,0.604-3.323c0-1.229-0.207-2.108-0.621-2.635C133.673,28.117,133.064,27.854,132.258,27.854z"/>
	<path display="inline" fill="#232323" d="M145.551,25.84c0.224,0,0.486,0.021,0.789,0.067c0.302,0.045,0.599,0.111,0.89,0.2h4.028
		c0.067,0.112,0.128,0.28,0.185,0.503c0.057,0.225,0.084,0.493,0.084,0.807c0,0.693-0.313,1.041-0.939,1.041
		c-0.313,0-0.716-0.057-1.208-0.168c0.38,0.381,0.688,0.873,0.923,1.477c0.235,0.604,0.353,1.321,0.353,2.148
		c0,1.791-0.42,3.217-1.259,4.279c-0.839,1.063-2.231,1.595-4.18,1.595c-0.627,0-1.13-0.044-1.511-0.135
		c-0.225,0.225-0.426,0.471-0.604,0.739c-0.18,0.27-0.269,0.516-0.269,0.738c0,0.157,0.101,0.286,0.302,0.386
		c0.201,0.101,0.479,0.186,0.839,0.252c0.358,0.067,0.777,0.134,1.259,0.201s1.002,0.134,1.563,0.202
		c0.671,0.112,1.274,0.251,1.813,0.419s1.001,0.403,1.395,0.705c0.391,0.302,0.692,0.677,0.906,1.125
		c0.212,0.448,0.317,1.007,0.317,1.679c0,0.716-0.123,1.404-0.369,2.064s-0.633,1.242-1.157,1.746
		c-0.525,0.503-1.197,0.905-2.015,1.208c-0.816,0.302-1.785,0.452-2.904,0.452c-1.118,0-2.029-0.105-2.734-0.318
		s-1.254-0.499-1.646-0.856c-0.392-0.357-0.653-0.75-0.788-1.175s-0.201-0.862-0.201-1.309c0-0.828,0.245-1.583,0.738-2.267
		c0.491-0.683,1.097-1.27,1.813-1.762c-0.649-0.179-1.158-0.419-1.527-0.722c-0.369-0.304-0.543-0.678-0.521-1.125
		c0.021-0.448,0.224-0.936,0.604-1.46c0.38-0.525,0.896-1.046,1.544-1.562c-0.784-0.515-1.326-1.214-1.628-2.098
		c-0.303-0.884-0.453-1.863-0.453-2.938c0-1.119,0.135-2.069,0.402-2.854c0.269-0.783,0.649-1.416,1.142-1.897
		c0.492-0.48,1.079-0.833,1.764-1.057C143.967,25.952,144.723,25.84,145.551,25.84z M144.645,42.323
		c-0.111,0-0.213-0.005-0.303-0.017c-0.089-0.011-0.19-0.028-0.302-0.05c-0.492,0.381-0.918,0.839-1.275,1.376
		s-0.537,1.085-0.537,1.645c0,0.27,0.039,0.51,0.117,0.723c0.078,0.212,0.219,0.396,0.42,0.554c0.201,0.156,0.486,0.28,0.855,0.37
		c0.369,0.089,0.845,0.134,1.427,0.134c0.604,0,1.119-0.079,1.545-0.235c0.425-0.156,0.777-0.363,1.057-0.62
		c0.28-0.258,0.487-0.537,0.621-0.84c0.135-0.302,0.202-0.599,0.202-0.89c0-0.381-0.063-0.694-0.185-0.939
		c-0.124-0.247-0.331-0.453-0.621-0.621c-0.292-0.168-0.685-0.297-1.176-0.387C145.998,42.435,145.383,42.368,144.645,42.323z
		 M145.45,27.854c-0.718,0-1.326,0.309-1.83,0.923c-0.503,0.616-0.755,1.662-0.755,3.14c0,0.604,0.032,1.142,0.101,1.61
		c0.067,0.471,0.188,0.868,0.369,1.192c0.179,0.325,0.431,0.57,0.756,0.738c0.324,0.168,0.743,0.252,1.259,0.252
		c0.896,0,1.544-0.369,1.946-1.108c0.403-0.738,0.604-1.846,0.604-3.323c0-1.229-0.207-2.108-0.621-2.635
		C146.865,28.117,146.256,27.854,145.45,27.854z"/>
	<path display="inline" fill="#232323" d="M156.192,42.423c0,0.134-0.017,0.241-0.05,0.319c-0.034,0.078-0.141,0.134-0.318,0.168
		c-0.179,0.033-0.453,0.05-0.822,0.05s-0.901,0-1.596,0V27.417c0-0.313,0.039-0.555,0.118-0.723
		c0.078-0.167,0.224-0.291,0.437-0.368c0.213-0.078,0.498-0.123,0.855-0.135c0.357-0.011,0.816-0.017,1.376-0.017V42.423z
		 M153.44,20.838c0.021-0.604,0.156-1.091,0.402-1.46c0.246-0.37,0.638-0.554,1.175-0.554c0.516,0,0.873,0.146,1.074,0.437
		c0.202,0.291,0.291,0.794,0.269,1.511c0,0.694-0.129,1.231-0.386,1.611c-0.258,0.381-0.644,0.571-1.158,0.571
		c-0.447,0-0.789-0.157-1.022-0.471C153.557,22.17,153.44,21.622,153.44,20.838z"/>
	<path display="inline" fill="#232323" d="M170.56,22.013v20.41c0,0.134-0.017,0.241-0.05,0.319s-0.135,0.134-0.302,0.168
		c-0.168,0.033-0.438,0.05-0.807,0.05s-0.89,0-1.562,0V22.013h-4.565v-1.98c0-0.381,0.189-0.571,0.57-0.571h11.414v2.015
		c0,0.358-0.19,0.537-0.57,0.537H170.56z"/>
	<path display="inline" fill="#232323" d="M179.119,25.84c2.842,0,4.264,1.802,4.264,5.405c0,0.738-0.028,1.5-0.084,2.282
		c-0.057,0.784-0.151,1.478-0.285,2.082c-0.583,0.112-1.198,0.201-1.847,0.27c-0.649,0.066-1.292,0.123-1.932,0.167
		c-0.638,0.045-1.235,0.073-1.796,0.084c-0.56,0.012-1.04,0.017-1.442,0.017c0.021,0.896,0.105,1.634,0.252,2.215
		c0.146,0.583,0.341,1.041,0.588,1.376c0.245,0.335,0.559,0.571,0.938,0.705c0.38,0.135,0.828,0.201,1.344,0.201
		c0.672,0,1.331-0.095,1.979-0.285c0.649-0.189,1.265-0.441,1.847-0.755c0.09,0.247,0.151,0.549,0.186,0.906
		c0.033,0.358,0.05,0.671,0.05,0.94c0,0.269-0.123,0.515-0.369,0.738c-0.246,0.225-0.582,0.419-1.007,0.587
		s-0.918,0.296-1.477,0.387c-0.562,0.089-1.153,0.134-1.779,0.134c-0.784,0-1.506-0.102-2.166-0.302
		c-0.66-0.202-1.225-0.588-1.694-1.158c-0.471-0.571-0.84-1.371-1.107-2.4c-0.27-1.029-0.402-2.36-0.402-3.995
		c0-2.104,0.173-3.788,0.521-5.052c0.347-1.264,0.795-2.232,1.343-2.904c0.549-0.671,1.181-1.112,1.896-1.325
		C177.654,25.946,178.381,25.84,179.119,25.84z M178.818,28.223c-0.336,0-0.66,0.084-0.974,0.252s-0.6,0.47-0.856,0.906
		s-0.47,1.019-0.638,1.746s-0.273,1.662-0.317,2.803c0.313,0,0.671,0,1.073,0s0.812-0.017,1.226-0.05s0.816-0.072,1.209-0.118
		c0.391-0.044,0.731-0.112,1.022-0.201c0.067-0.313,0.112-0.648,0.136-1.007c0.021-0.357,0.032-0.693,0.032-1.007
		c-0.021-1.208-0.168-2.064-0.437-2.568S179.533,28.223,178.818,28.223z"/>
	<path display="inline" fill="#232323" d="M185.799,19.529c0-0.313,0.039-0.554,0.118-0.722c0.078-0.168,0.218-0.291,0.419-0.369
		c0.202-0.078,0.48-0.123,0.84-0.134c0.357-0.011,0.816-0.017,1.376-0.017v9.098c0.56-0.47,1.22-0.845,1.98-1.125
		c0.76-0.28,1.498-0.42,2.216-0.42c0.56,0,1.019,0.079,1.376,0.235s0.648,0.369,0.873,0.638c0.224,0.268,0.381,0.576,0.47,0.923
		c0.09,0.347,0.135,0.711,0.135,1.091c0,0.694-0.105,1.326-0.318,1.896c-0.214,0.569-0.466,1.073-0.756,1.511
		c-0.291,0.437-0.6,0.806-0.923,1.108c-0.325,0.302-0.588,0.531-0.789,0.688c0.807,0.358,1.527,1.007,2.165,1.947
		c0.639,0.939,1.023,2.182,1.158,3.726c0.021,0.18,0.033,0.358,0.033,0.537s0,0.369,0,0.571c0,0.537-0.033,1.106-0.102,1.712
		c-0.021,0.134-0.05,0.241-0.084,0.319c-0.032,0.078-0.149,0.134-0.353,0.168c-0.201,0.033-0.503,0.05-0.906,0.05
		c-0.401,0-0.984,0-1.745,0c0.044-0.38,0.078-0.75,0.102-1.108c0.021-0.356,0.033-0.705,0.033-1.041c0-0.38-0.018-0.727-0.051-1.041
		c-0.033-0.313-0.072-0.626-0.117-0.939c-0.201-1.344-0.576-2.288-1.124-2.837c-0.55-0.549-1.147-0.756-1.797-0.621
		c-0.156,0.045-0.318,0.101-0.486,0.168c-0.168,0.066-0.33,0.134-0.486,0.202c-0.18,0.089-0.348,0.179-0.504,0.269v6.412
		c0,0.134-0.012,0.241-0.033,0.319s-0.118,0.134-0.286,0.168c-0.167,0.033-0.44,0.05-0.821,0.05c-0.382,0-0.918,0-1.611,0
		L185.799,19.529L185.799,19.529z M192.58,29.667c0-0.917-0.414-1.376-1.242-1.376c-0.447,0-0.912,0.134-1.394,0.402
		c-0.48,0.27-0.945,0.671-1.394,1.208v4.163c1.163-0.47,2.126-1.058,2.887-1.762C192.199,31.597,192.58,30.719,192.58,29.667z"/>
	<path display="inline" fill="#232323" d="M198.556,26.981c0.336-0.134,0.716-0.273,1.143-0.42c0.425-0.145,0.871-0.269,1.343-0.369
		c0.47-0.101,0.944-0.185,1.427-0.252c0.48-0.066,0.945-0.101,1.393-0.101c1.769,0,2.999,0.341,3.692,1.023
		c0.694,0.684,1.041,1.842,1.041,3.476v12.085c0,0.134-0.017,0.241-0.05,0.319c-0.034,0.078-0.142,0.134-0.319,0.168
		c-0.18,0.033-0.459,0.05-0.839,0.05c-0.381,0-0.918,0-1.611,0V31.144c0-1.074-0.124-1.83-0.37-2.266
		c-0.245-0.437-0.794-0.655-1.645-0.655c-0.358,0-0.767,0.051-1.226,0.151c-0.459,0.1-0.878,0.251-1.26,0.453v13.596
		c0,0.134-0.017,0.241-0.05,0.319c-0.034,0.078-0.141,0.134-0.318,0.168c-0.181,0.033-0.448,0.05-0.807,0.05
		c-0.357,0-0.873,0-1.544,0V26.981z"/>
	<path display="inline" fill="#232323" d="M210.674,34.568c0-3.065,0.486-5.287,1.46-6.664c0.974-1.376,2.345-2.063,4.112-2.063
		c0.873,0,1.64,0.129,2.3,0.386s1.203,0.716,1.628,1.376s0.744,1.544,0.957,2.652c0.212,1.107,0.319,2.512,0.319,4.213
		c0,3.134-0.472,5.388-1.41,6.764c-0.94,1.376-2.307,2.065-4.097,2.065c-0.873,0-1.634-0.102-2.282-0.302
		c-0.649-0.202-1.197-0.61-1.646-1.227c-0.448-0.615-0.783-1.499-1.007-2.651S210.674,36.448,210.674,34.568z M213.628,34.635
		c0,1.388,0.051,2.496,0.15,3.323c0.102,0.828,0.253,1.466,0.453,1.914c0.201,0.447,0.453,0.744,0.755,0.89
		c0.304,0.146,0.645,0.218,1.024,0.218c0.357,0,0.688-0.089,0.99-0.269s0.563-0.516,0.789-1.007c0.223-0.492,0.396-1.152,0.52-1.98
		c0.123-0.828,0.186-1.902,0.186-3.223c0-1.343-0.051-2.422-0.15-3.24c-0.101-0.816-0.247-1.449-0.437-1.896
		c-0.19-0.446-0.433-0.75-0.723-0.905c-0.291-0.156-0.638-0.235-1.041-0.235c-0.381,0-0.722,0.09-1.022,0.27
		c-0.304,0.18-0.565,0.504-0.789,0.974c-0.225,0.47-0.397,1.125-0.521,1.964S213.628,33.337,213.628,34.635z"/>
	<path display="inline" fill="#232323" d="M226.486,42.423c0,0.134-0.018,0.241-0.051,0.319s-0.134,0.134-0.302,0.168
		c-0.168,0.033-0.438,0.05-0.806,0.05c-0.369,0-0.891,0-1.563,0V19.529c0-0.313,0.039-0.554,0.118-0.722
		c0.078-0.168,0.218-0.291,0.419-0.369c0.202-0.078,0.481-0.123,0.84-0.134c0.357-0.011,0.807-0.017,1.343-0.017L226.486,42.423
		L226.486,42.423z"/>
	<path display="inline" fill="#232323" d="M228.835,34.568c0-3.065,0.485-5.287,1.46-6.664c0.974-1.376,2.345-2.063,4.112-2.063
		c0.872,0,1.64,0.129,2.3,0.386s1.203,0.716,1.628,1.376s0.744,1.544,0.957,2.652c0.212,1.107,0.318,2.512,0.318,4.213
		c0,3.134-0.471,5.388-1.409,6.764c-0.94,1.376-2.307,2.065-4.097,2.065c-0.873,0-1.634-0.102-2.283-0.302
		c-0.648-0.202-1.196-0.61-1.645-1.227c-0.448-0.615-0.783-1.499-1.007-2.651S228.835,36.448,228.835,34.568z M231.789,34.635
		c0,1.388,0.051,2.496,0.15,3.323c0.102,0.828,0.252,1.466,0.453,1.914c0.201,0.447,0.453,0.744,0.755,0.89
		c0.304,0.146,0.645,0.218,1.024,0.218c0.356,0,0.688-0.089,0.99-0.269c0.302-0.18,0.563-0.516,0.789-1.007
		c0.223-0.492,0.396-1.152,0.52-1.98c0.123-0.828,0.185-1.902,0.185-3.223c0-1.343-0.05-2.422-0.149-3.24
		c-0.102-0.816-0.247-1.449-0.438-1.896c-0.189-0.446-0.432-0.75-0.722-0.905c-0.291-0.156-0.638-0.235-1.041-0.235
		c-0.381,0-0.722,0.09-1.022,0.27c-0.304,0.18-0.565,0.504-0.789,0.974c-0.225,0.47-0.397,1.125-0.521,1.964
		S231.789,33.337,231.789,34.635z"/>
	<path display="inline" fill="#232323" d="M247.265,25.84c0.225,0,0.486,0.021,0.789,0.067c0.302,0.045,0.599,0.111,0.89,0.2h4.028
		c0.067,0.112,0.128,0.28,0.186,0.503c0.056,0.225,0.084,0.493,0.084,0.807c0,0.693-0.313,1.041-0.94,1.041
		c-0.313,0-0.716-0.057-1.208-0.168c0.38,0.381,0.688,0.873,0.923,1.477c0.235,0.604,0.354,1.321,0.354,2.148
		c0,1.791-0.42,3.217-1.26,4.279c-0.839,1.063-2.231,1.595-4.18,1.595c-0.627,0-1.13-0.044-1.511-0.135
		c-0.224,0.225-0.425,0.471-0.604,0.739c-0.18,0.27-0.269,0.516-0.269,0.738c0,0.157,0.101,0.286,0.302,0.386
		c0.201,0.101,0.48,0.186,0.839,0.252c0.358,0.067,0.777,0.134,1.26,0.201c0.48,0.067,1.002,0.134,1.562,0.202
		c0.671,0.112,1.275,0.251,1.813,0.419c0.537,0.168,1.001,0.403,1.394,0.705c0.391,0.302,0.693,0.677,0.906,1.125
		c0.212,0.448,0.317,1.007,0.317,1.679c0,0.716-0.123,1.404-0.368,2.064c-0.246,0.66-0.634,1.242-1.158,1.746
		c-0.525,0.503-1.197,0.905-2.015,1.208c-0.816,0.302-1.784,0.452-2.903,0.452s-2.03-0.105-2.735-0.318s-1.254-0.499-1.646-0.856
		c-0.393-0.357-0.654-0.75-0.788-1.175c-0.136-0.425-0.202-0.862-0.202-1.309c0-0.828,0.246-1.583,0.739-2.267
		c0.49-0.683,1.096-1.27,1.813-1.762c-0.648-0.179-1.158-0.419-1.527-0.722c-0.368-0.304-0.543-0.678-0.521-1.125
		c0.021-0.448,0.224-0.936,0.604-1.46c0.381-0.525,0.896-1.046,1.544-1.562c-0.783-0.515-1.325-1.214-1.628-2.098
		s-0.452-1.863-0.452-2.938c0-1.119,0.134-2.069,0.401-2.854c0.27-0.783,0.649-1.416,1.143-1.897
		c0.491-0.48,1.079-0.833,1.763-1.057C245.681,25.952,246.437,25.84,247.265,25.84z M246.359,42.323
		c-0.111,0-0.213-0.005-0.303-0.017c-0.089-0.011-0.189-0.028-0.302-0.05c-0.492,0.381-0.918,0.839-1.275,1.376
		s-0.537,1.085-0.537,1.645c0,0.27,0.039,0.51,0.117,0.723c0.078,0.212,0.219,0.396,0.42,0.554c0.201,0.156,0.486,0.28,0.855,0.37
		c0.369,0.089,0.845,0.134,1.427,0.134c0.604,0,1.119-0.079,1.545-0.235c0.425-0.156,0.777-0.363,1.058-0.62
		c0.279-0.258,0.486-0.537,0.62-0.84c0.136-0.302,0.202-0.599,0.202-0.89c0-0.381-0.063-0.694-0.185-0.939
		c-0.124-0.247-0.331-0.453-0.621-0.621c-0.292-0.168-0.684-0.297-1.176-0.387S247.097,42.368,246.359,42.323z M247.164,27.854
		c-0.718,0-1.326,0.309-1.83,0.923c-0.503,0.616-0.755,1.662-0.755,3.14c0,0.604,0.032,1.142,0.101,1.61
		c0.067,0.471,0.189,0.868,0.369,1.192c0.179,0.325,0.431,0.57,0.756,0.738c0.324,0.168,0.743,0.252,1.259,0.252
		c0.896,0,1.544-0.369,1.946-1.108c0.403-0.738,0.604-1.846,0.604-3.323c0-1.229-0.207-2.108-0.621-2.635
		C248.579,28.117,247.97,27.854,247.164,27.854z"/>
	<path display="inline" fill="#232323" d="M257.906,42.423c0,0.134-0.018,0.241-0.051,0.319s-0.141,0.134-0.318,0.168
		c-0.179,0.033-0.453,0.05-0.822,0.05s-0.901,0-1.595,0V27.417c0-0.313,0.039-0.555,0.118-0.723
		c0.077-0.167,0.223-0.291,0.436-0.368c0.213-0.078,0.498-0.123,0.856-0.135c0.356-0.011,0.815-0.017,1.376-0.017V42.423
		L257.906,42.423z M255.154,20.838c0.021-0.604,0.156-1.091,0.402-1.46c0.246-0.37,0.638-0.554,1.175-0.554
		c0.516,0,0.873,0.146,1.074,0.437c0.202,0.291,0.291,0.794,0.27,1.511c0,0.694-0.13,1.231-0.387,1.611
		c-0.258,0.381-0.644,0.571-1.157,0.571c-0.448,0-0.789-0.157-1.023-0.471C255.271,22.17,255.154,21.622,255.154,20.838z"/>
	<path display="inline" fill="#232323" d="M266.163,20.1c0-0.202,0.062-0.357,0.185-0.47s0.363-0.168,0.722-0.168h3.323
		c0.672,0,1.343,0.066,2.016,0.202c0.671,0.134,1.274,0.392,1.813,0.771c0.537,0.381,0.974,0.912,1.31,1.595
		c0.337,0.684,0.504,1.562,0.504,2.636c0,0.918-0.102,1.707-0.303,2.367c-0.201,0.659-0.459,1.208-0.771,1.645
		c-0.313,0.436-0.66,0.767-1.04,0.99c-0.381,0.224-0.75,0.357-1.108,0.402c0.381,0.022,0.801,0.102,1.26,0.235
		c0.458,0.134,0.89,0.381,1.292,0.738s0.738,0.851,1.008,1.478c0.269,0.627,0.402,1.443,0.402,2.45c0,1.41-0.168,2.619-0.504,3.625
		c-0.336,1.007-0.795,1.835-1.376,2.484c-0.582,0.648-1.259,1.125-2.031,1.427c-0.771,0.302-1.595,0.453-2.468,0.453h-4.229V20.1
		H266.163z M268.949,29.063h1.646c0.716,0,1.303-0.307,1.762-0.923s0.688-1.595,0.688-2.938c0-0.693-0.067-1.253-0.201-1.68
		c-0.135-0.425-0.319-0.76-0.554-1.007c-0.235-0.246-0.504-0.414-0.807-0.503s-0.609-0.134-0.924-0.134h-1.61V29.063z
		 M268.949,40.577h1.511c0.425,0,0.822-0.102,1.191-0.303c0.369-0.202,0.698-0.521,0.99-0.957c0.29-0.437,0.521-0.99,0.688-1.662
		c0.168-0.671,0.252-1.487,0.252-2.449c0-0.873-0.078-1.562-0.235-2.065c-0.156-0.503-0.369-0.884-0.638-1.141
		c-0.27-0.257-0.593-0.419-0.975-0.487c-0.38-0.067-0.794-0.101-1.24-0.101h-1.545V40.577L268.949,40.577z"/>
	<path display="inline" fill="#232323" d="M278.349,27.686c0-0.179,0.028-0.352,0.084-0.52c0.057-0.168,0.151-0.309,0.285-0.42
		c0.291-0.18,0.896-0.375,1.813-0.587c0.917-0.213,2.014-0.319,3.288-0.319c1.455,0,2.514,0.302,3.174,0.906
		c0.659,0.604,0.989,1.667,0.989,3.188v1.779c0,0.962,0,1.93,0,2.903s-0.012,1.913-0.032,2.819
		c-0.022,0.906-0.047,1.763-0.067,2.568c-0.022,0.806-0.057,1.521-0.101,2.147c-0.448,0.27-1.063,0.526-1.848,0.772
		s-1.724,0.37-2.818,0.37c-0.604,0-1.198-0.045-1.779-0.134c-0.583-0.091-1.097-0.313-1.545-0.673
		c-0.447-0.356-0.807-0.878-1.074-1.561s-0.402-1.595-0.402-2.736c0-1.163,0.128-2.103,0.387-2.819
		c0.257-0.717,0.593-1.275,1.007-1.679c0.414-0.402,0.89-0.671,1.427-0.806s1.086-0.202,1.646-0.202c0.38,0,0.8,0.028,1.259,0.084
		c0.458,0.057,0.854,0.174,1.19,0.354v-2.652c0-0.783-0.179-1.31-0.537-1.578c-0.357-0.268-0.872-0.403-1.544-0.403
		c-0.851,0-1.679,0.073-2.483,0.219c-0.807,0.146-1.455,0.318-1.947,0.521c-0.156-0.269-0.257-0.542-0.302-0.822
		C278.373,28.127,278.349,27.888,278.349,27.686z M285.231,35.038c-0.224-0.112-0.48-0.19-0.771-0.235
		c-0.292-0.045-0.562-0.067-0.807-0.067c-0.336,0-0.654,0.04-0.957,0.118c-0.303,0.079-0.564,0.241-0.788,0.487
		c-0.225,0.246-0.402,0.587-0.537,1.022c-0.135,0.438-0.201,1.024-0.201,1.764c0,0.604,0.05,1.097,0.149,1.477
		c0.103,0.381,0.246,0.677,0.438,0.891c0.19,0.213,0.42,0.353,0.688,0.419c0.27,0.066,0.57,0.101,0.906,0.101
		c0.381,0,0.733-0.055,1.059-0.167c0.323-0.112,0.563-0.246,0.722-0.403c0.021-0.269,0.039-0.621,0.051-1.058
		c0.011-0.437,0.021-0.9,0.033-1.393c0.011-0.492,0.017-0.996,0.017-1.512C285.231,35.967,285.231,35.486,285.231,35.038z"/>
	<path display="inline" fill="#232323" d="M290.737,26.981c0.337-0.134,0.717-0.273,1.143-0.42c0.425-0.145,0.872-0.269,1.343-0.369
		c0.47-0.101,0.945-0.185,1.427-0.252c0.48-0.066,0.945-0.101,1.394-0.101c1.768,0,2.999,0.341,3.691,1.023
		c0.694,0.684,1.041,1.842,1.041,3.476v12.085c0,0.134-0.017,0.241-0.05,0.319c-0.034,0.078-0.141,0.134-0.319,0.168
		c-0.18,0.033-0.459,0.05-0.839,0.05c-0.381,0-0.918,0-1.61,0V31.144c0-1.074-0.124-1.83-0.37-2.266
		c-0.246-0.437-0.794-0.655-1.646-0.655c-0.357,0-0.767,0.051-1.226,0.151c-0.459,0.1-0.878,0.251-1.259,0.453v13.596
		c0,0.134-0.018,0.241-0.05,0.319c-0.034,0.078-0.142,0.134-0.319,0.168c-0.18,0.033-0.448,0.05-0.806,0.05
		c-0.358,0-0.873,0-1.545,0V26.981z"/>
	<path display="inline" fill="#232323" d="M310.675,19.529c0-0.313,0.039-0.554,0.118-0.722c0.078-0.168,0.218-0.291,0.419-0.369
		c0.202-0.078,0.476-0.123,0.823-0.134c0.347-0.011,0.8-0.017,1.358-0.017v24.002c-0.56,0.269-1.236,0.503-2.031,0.705
		c-0.795,0.2-1.718,0.302-2.77,0.302c-0.738,0-1.438-0.084-2.098-0.252s-1.242-0.531-1.746-1.091
		c-0.503-0.56-0.901-1.376-1.191-2.45c-0.291-1.074-0.437-2.519-0.437-4.331c0-1.656,0.135-3.077,0.402-4.264
		c0.27-1.187,0.639-2.153,1.107-2.903s1.018-1.298,1.645-1.646c0.627-0.347,1.299-0.521,2.016-0.521
		c1.007,0,1.801,0.224,2.383,0.671L310.675,19.529L310.675,19.529z M310.675,28.66c-0.224-0.18-0.447-0.297-0.671-0.354
		c-0.225-0.056-0.516-0.084-0.873-0.084c-0.381,0-0.744,0.09-1.091,0.27c-0.349,0.18-0.66,0.51-0.94,0.99
		c-0.279,0.481-0.503,1.158-0.671,2.031s-0.252,1.992-0.252,3.357c0,1.253,0.056,2.271,0.168,3.055
		c0.111,0.784,0.279,1.394,0.504,1.83c0.223,0.437,0.486,0.728,0.788,0.873c0.303,0.146,0.655,0.218,1.058,0.218
		c0.382,0,0.739-0.039,1.074-0.118c0.336-0.078,0.639-0.207,0.906-0.386V28.66L310.675,28.66z"/>
	<path display="inline" fill="#232323" d="M326.521,42.087c-0.648,0.357-1.416,0.648-2.3,0.873
		c-0.885,0.224-1.785,0.336-2.702,0.336c-1.007,0-1.836-0.112-2.483-0.336c-0.649-0.225-1.164-0.571-1.544-1.041
		c-0.382-0.47-0.645-1.052-0.789-1.746c-0.146-0.693-0.219-1.511-0.219-2.451V26.746c0-0.135,0.018-0.24,0.051-0.319
		c0.032-0.078,0.135-0.134,0.302-0.167c0.168-0.034,0.441-0.056,0.823-0.067c0.38-0.011,0.928-0.017,1.645-0.017v11.783
		c0,1.097,0.146,1.862,0.438,2.3c0.29,0.436,0.895,0.654,1.813,0.654c0.313,0,0.677-0.039,1.091-0.117s0.8-0.24,1.158-0.487V26.746
		c0-0.135,0.018-0.24,0.051-0.319c0.033-0.078,0.134-0.134,0.302-0.167c0.169-0.034,0.438-0.056,0.807-0.067
		c0.369-0.011,0.89-0.017,1.562-0.017v15.911H326.521z"/>
	<path display="inline" fill="#232323" d="M329.609,26.981c0.336-0.134,0.717-0.273,1.143-0.42c0.425-0.145,0.872-0.269,1.343-0.369
		c0.47-0.101,0.945-0.185,1.427-0.252c0.48-0.066,0.945-0.101,1.394-0.101c1.768,0,2.999,0.341,3.691,1.023
		c0.694,0.684,1.041,1.842,1.041,3.476v12.085c0,0.134-0.017,0.241-0.05,0.319c-0.034,0.078-0.141,0.134-0.319,0.168
		c-0.18,0.033-0.459,0.05-0.839,0.05c-0.381,0-0.918,0-1.61,0V31.144c0-1.074-0.124-1.83-0.37-2.266
		c-0.246-0.437-0.794-0.655-1.646-0.655c-0.357,0-0.767,0.051-1.226,0.151c-0.459,0.1-0.878,0.251-1.259,0.453v13.596
		c0,0.134-0.018,0.241-0.051,0.319s-0.141,0.134-0.318,0.168c-0.181,0.033-0.448,0.05-0.807,0.05c-0.357,0-0.872,0-1.544,0V26.981z"
		/>
	<path display="inline" fill="#232323" d="M347.803,25.84c0.224,0,0.486,0.021,0.789,0.067c0.302,0.045,0.599,0.111,0.89,0.2h4.028
		c0.067,0.112,0.128,0.28,0.185,0.503c0.057,0.225,0.084,0.493,0.084,0.807c0,0.693-0.313,1.041-0.939,1.041
		c-0.313,0-0.716-0.057-1.208-0.168c0.38,0.381,0.688,0.873,0.923,1.477c0.235,0.604,0.354,1.321,0.354,2.148
		c0,1.791-0.421,3.217-1.26,4.279c-0.839,1.063-2.231,1.595-4.18,1.595c-0.627,0-1.13-0.044-1.511-0.135
		c-0.225,0.225-0.425,0.471-0.604,0.739c-0.18,0.27-0.269,0.516-0.269,0.738c0,0.157,0.101,0.286,0.302,0.386
		c0.201,0.101,0.48,0.186,0.839,0.252c0.358,0.067,0.777,0.134,1.259,0.201s1.002,0.134,1.563,0.202
		c0.671,0.112,1.274,0.251,1.813,0.419s1.001,0.403,1.395,0.705c0.391,0.302,0.692,0.677,0.906,1.125
		c0.212,0.448,0.317,1.007,0.317,1.679c0,0.716-0.123,1.404-0.369,2.064s-0.633,1.242-1.157,1.746
		c-0.525,0.503-1.197,0.905-2.015,1.208c-0.816,0.302-1.785,0.452-2.903,0.452c-1.119,0-2.03-0.105-2.735-0.318
		s-1.254-0.499-1.646-0.856c-0.392-0.357-0.653-0.75-0.787-1.175c-0.136-0.425-0.202-0.862-0.202-1.309
		c0-0.828,0.246-1.583,0.738-2.267c0.491-0.683,1.097-1.27,1.813-1.762c-0.649-0.179-1.158-0.419-1.527-0.722
		c-0.369-0.304-0.543-0.678-0.521-1.125c0.021-0.448,0.224-0.936,0.604-1.46c0.38-0.525,0.896-1.046,1.544-1.562
		c-0.783-0.515-1.325-1.214-1.628-2.098s-0.453-1.863-0.453-2.938c0-1.119,0.135-2.069,0.402-2.854
		c0.27-0.783,0.649-1.416,1.142-1.897c0.492-0.48,1.079-0.833,1.764-1.057C346.219,25.952,346.975,25.84,347.803,25.84z
		 M346.897,42.323c-0.111,0-0.213-0.005-0.303-0.017c-0.089-0.011-0.19-0.028-0.302-0.05c-0.492,0.381-0.918,0.839-1.275,1.376
		s-0.537,1.085-0.537,1.645c0,0.27,0.039,0.51,0.117,0.723c0.078,0.212,0.219,0.396,0.42,0.554c0.201,0.156,0.486,0.28,0.855,0.37
		c0.369,0.089,0.845,0.134,1.427,0.134c0.604,0,1.119-0.079,1.545-0.235c0.425-0.156,0.777-0.363,1.057-0.62
		c0.28-0.258,0.487-0.537,0.621-0.84c0.136-0.302,0.202-0.599,0.202-0.89c0-0.381-0.063-0.694-0.185-0.939
		c-0.124-0.247-0.331-0.453-0.621-0.621c-0.292-0.168-0.685-0.297-1.176-0.387C348.25,42.435,347.635,42.368,346.897,42.323z
		 M347.702,27.854c-0.718,0-1.326,0.309-1.83,0.923c-0.503,0.616-0.755,1.662-0.755,3.14c0,0.604,0.032,1.142,0.101,1.61
		c0.067,0.471,0.189,0.868,0.369,1.192c0.179,0.325,0.431,0.57,0.756,0.738c0.324,0.168,0.743,0.252,1.259,0.252
		c0.896,0,1.544-0.369,1.946-1.108c0.403-0.738,0.604-1.846,0.604-3.323c0-1.229-0.207-2.108-0.62-2.635
		C349.117,28.117,348.508,27.854,347.702,27.854z"/>
</g>
<g>
	<path d="M75.974,52.843v4.545h-1.563v-4.482l-3.624-5.622h1.765l2.702,4.216l2.624-4.216h1.655L75.974,52.843z"/>
	<path d="M84.511,57.669c-3.497,0-4.56-2.28-4.56-5.295c0-2.983,1.202-5.279,4.576-5.279c3.373,0,4.499,2.201,4.499,5.279
		C89.026,55.373,87.87,57.669,84.511,57.669z M84.511,48.298c-2.124,0-2.95,1.406-2.95,4.076c0,2.732,0.812,4.093,2.95,4.093
		c2.187,0,2.906-1.548,2.906-4.093C87.417,49.688,86.62,48.298,84.511,48.298z"/>
	<path d="M95.157,57.669c-2.827,0-4.076-1.313-4.076-4.015v-6.372h1.562v6.216c0,2.421,0.953,2.969,2.514,2.969
		c1.484,0,2.312-0.766,2.312-2.969v-6.216h1.562v6.403C99.031,56.371,97.703,57.669,95.157,57.669z"/>
	<path d="M107.148,57.388l-3.217-4.358h-0.736v4.358h-1.561V47.283h3.467c1.607,0,3.327,0.562,3.327,2.812
		c0,1.421-0.656,2.686-2.687,2.889l3.295,4.404H107.148z M105.179,48.485h-1.983v3.342h2c1.188,0,1.64-0.749,1.64-1.733
		C106.836,49.078,106.273,48.485,105.179,48.485z"/>
	<path d="M117.855,53.281h-1.843v4.106h-1.562V47.282h3.233c2.063,0,3.483,0.733,3.483,2.951
		C121.166,52.422,119.886,53.281,117.855,53.281z M117.653,48.485h-1.641v3.592h1.719c1.108,0,1.843-0.405,1.843-1.843
		C119.573,48.735,118.73,48.485,117.653,48.485z"/>
	<path d="M128.892,57.388l-1-2.858h-3.873l-1.063,2.858h-1.639l4.107-10.104h1.374l3.811,10.104H128.892z M126.034,49.095
		l-1.577,4.265h3.045L126.034,49.095z"/>
	<path d="M137.712,57.388l-3.218-4.358h-0.734v4.358h-1.561V47.283h3.466c1.608,0,3.327,0.562,3.327,2.812
		c0,1.421-0.654,2.686-2.685,2.889l3.295,4.404H137.712z M135.744,48.485h-1.983v3.342h1.999c1.188,0,1.642-0.749,1.642-1.733
		C137.4,49.078,136.837,48.485,135.744,48.485z"/>
	<path d="M144.704,48.502v8.886h-1.545v-8.886h-2.89v-1.219h7.324v1.219H144.704z"/>
	<path d="M154.711,57.388l-4.169-8.262v8.262h-1.468V47.283h2.281l4.139,8.262v-8.262h1.53v10.104H154.711z"/>
	<path d="M159.626,57.388V47.283h5.794v1.202h-4.232v3.078h3.904v1.201h-3.904v3.421h4.373v1.203L159.626,57.388L159.626,57.388z"/>
	<path d="M173.475,57.388l-3.218-4.358h-0.734v4.358h-1.561V47.283h3.466c1.608,0,3.327,0.562,3.327,2.812
		c0,1.421-0.654,2.686-2.685,2.889l3.295,4.404H173.475z M171.507,48.485h-1.983v3.342h2c1.188,0,1.64-0.749,1.64-1.733
		C173.162,49.078,172.6,48.485,171.507,48.485z"/>
	<path d="M184.088,48.502v8.886h-1.546v-8.886h-2.89v-1.219h7.325v1.219H184.088z"/>
	<path d="M192.097,57.669c-3.497,0-4.56-2.28-4.56-5.295c0-2.983,1.202-5.279,4.576-5.279s4.499,2.201,4.499,5.279
		C196.612,55.373,195.456,57.669,192.097,57.669z M192.097,48.298c-2.124,0-2.95,1.406-2.95,4.076c0,2.732,0.812,4.093,2.95,4.093
		c2.187,0,2.906-1.548,2.906-4.093C195.003,49.688,194.206,48.298,192.097,48.298z"/>
	<path d="M206.194,57.669c-3.544,0-4.45-2.608-4.45-5.341c0-3.108,1.312-5.233,4.592-5.233c0.702,0,1.718,0.203,2.436,0.391
		l-0.5,1.327c-0.609-0.266-1.235-0.516-1.921-0.516c-1.906,0-2.999,1.094-2.999,4.031c0,2.436,0.594,4.139,2.889,4.139
		c0.736,0,1.281-0.204,1.813-0.501V53.39h-2.233v-1.203h3.624v4.593C208.395,57.357,207.584,57.669,206.194,57.669z"/>
	<path d="M211.497,57.388V47.283h1.563v8.854h4.404v1.25H211.497z"/>
	<path d="M222.38,57.669c-3.498,0-4.561-2.28-4.561-5.295c0-2.983,1.201-5.279,4.575-5.279c3.373,0,4.498,2.201,4.498,5.279
		C226.894,55.373,225.739,57.669,222.38,57.669z M222.38,48.298c-2.124,0-2.951,1.406-2.951,4.076c0,2.732,0.812,4.093,2.951,4.093
		c2.186,0,2.904-1.548,2.904-4.093C225.285,49.688,224.489,48.298,222.38,48.298z"/>
	<path d="M232.636,57.388h-3.687V47.283h3.171c1.937,0,3.404,0.547,3.404,2.717c0,1.063-0.688,1.797-1.608,2.094
		c1.25,0.218,2.077,0.983,2.077,2.39C235.993,56.794,234.448,57.388,232.636,57.388z M232.12,48.485h-1.609v3.107h1.827
		c0.891,0,1.594-0.483,1.594-1.577C233.932,48.986,233.432,48.485,232.12,48.485z M232.37,52.781h-1.86v3.404h2.031
		c1.047,0,1.843-0.313,1.843-1.702C234.385,53.124,233.48,52.781,232.37,52.781z"/>
	<path d="M244.532,57.388l-0.999-2.858h-3.873l-1.063,2.858h-1.64l4.107-10.104h1.373l3.812,10.104H244.532z M241.674,49.095
		l-1.576,4.265h3.045L241.674,49.095z"/>
	<path d="M247.838,57.388V47.283h1.563v8.854h4.404v1.25H247.838z"/>
	<path d="M262.529,57.669c-3.248,0-4.435-2.203-4.435-5.326c0-2.812,1.077-5.248,4.513-5.248c0.877,0,1.797,0.142,2.563,0.391
		l-0.501,1.327c-0.655-0.281-1.312-0.516-2.062-0.516c-2.217,0-2.904,1.688-2.904,4.031c0,2.482,0.688,4.139,2.811,4.139
		c0.813,0,1.452-0.267,2.266-0.595l0.499,1.329C264.388,57.513,263.591,57.669,262.529,57.669z"/>
	<path d="M270.99,57.669c-3.496,0-4.56-2.28-4.56-5.295c0-2.983,1.202-5.279,4.576-5.279c3.372,0,4.497,2.201,4.497,5.279
		C275.504,55.373,274.349,57.669,270.99,57.669z M270.99,48.298c-2.123,0-2.949,1.406-2.949,4.076c0,2.732,0.812,4.093,2.949,4.093
		c2.188,0,2.906-1.548,2.906-4.093C273.896,49.688,273.099,48.298,270.99,48.298z"/>
	<path d="M286.806,57.388v-8.449l-3.139,8.449h-1.483l-3.155-8.449v8.449h-1.468V47.283h2.483l2.938,7.981l2.982-7.981h2.359v10.104
		H286.806z"/>
	<path d="M294.326,53.281h-1.842v4.106h-1.562V47.282h3.232c2.062,0,3.482,0.733,3.482,2.951
		C297.637,52.422,296.358,53.281,294.326,53.281z M294.123,48.485h-1.641v3.592h1.719c1.107,0,1.843-0.405,1.843-1.843
		C296.044,48.735,295.201,48.485,294.123,48.485z"/>
	<path d="M299.555,57.388V47.283h5.794v1.202h-4.232v3.078h3.904v1.201h-3.904v3.421h4.373v1.203L299.555,57.388L299.555,57.388z"/>
	<path d="M311.2,48.502v8.886h-1.545v-8.886h-2.891v-1.219h7.324v1.219H311.2z"/>
	<path d="M315.383,57.388V47.283h1.563v10.104H315.383z"/>
	<path d="M322.674,48.502v8.886h-1.546v-8.886h-2.891v-1.219h7.325v1.219H322.674z"/>
	<path d="M326.857,57.388V47.283h1.562v10.104H326.857z"/>
	<path d="M334.85,57.669c-3.496,0-4.56-2.28-4.56-5.295c0-2.983,1.202-5.279,4.576-5.279c3.373,0,4.497,2.201,4.497,5.279
		C339.365,55.373,338.209,57.669,334.85,57.669z M334.85,48.298c-2.123,0-2.95,1.406-2.95,4.076c0,2.732,0.813,4.093,2.95,4.093
		c2.188,0,2.906-1.548,2.906-4.093C337.756,49.688,336.959,48.298,334.85,48.298z"/>
	<path d="M347.058,57.388l-4.169-8.262v8.262h-1.468V47.283h2.28l4.139,8.262v-8.262h1.53v10.104H347.058z"/>
</g>
<g>
	<path d="M6.998,31.252c0.409,0,1.521,1.044,3.338,1.044c0.976,0,2.134-0.295,2.134-1.657c0-2.679-6.562-1.635-6.562-6.971
		c0-3.337,2.725-4.654,5.381-4.654c2.407,0,4.087,0.84,4.087,1.589c0,0.613-0.704,1.975-1.249,1.975
		c-0.295,0-0.999-0.567-2.52-0.567c-1.771,0-2.112,0.817-2.112,1.34c0,2.588,6.562,1.544,6.562,6.879
		c0,3.769-2.657,5.041-5.132,5.041c-3.451,0-5.335-1.226-5.335-1.998C5.591,32.569,6.522,31.252,6.998,31.252z"/>
	<path d="M22.91,23.032c3.565,0,4.904,2.702,4.904,5.858c0,0.386-0.862,1.339-1.158,1.339h-5.79
		c0.159,1.816,1.135,2.384,2.611,2.384c1.43,0,2.429-0.704,2.748-0.704c0.499,0,1.181,1.271,1.181,1.726
		c0,1.135-2.815,1.635-4.087,1.635c-4.11,0-5.926-2.384-5.926-6.04C17.393,24.758,19.664,23.032,22.91,23.032z M24.545,27.983
		c0-1.317-0.499-2.293-1.635-2.293c-0.953,0-1.771,0.545-2.043,2.293H24.545z"/>
	<path d="M30.172,18.696c0-0.477,0.409-0.727,1.362-0.727h0.636c0.954,0,1.362,0.25,1.362,0.727v8.991l0.091,0.023l2.747-4.11
		c0.272-0.386,0.727-0.431,1.385-0.431h0.84c0.862,0,1.271,0.136,1.271,0.34c0,0.114-0.068,0.272-0.205,0.454l-3.156,4.496
		l3.701,5.858c0.114,0.205,0.182,0.34,0.182,0.477c0,0.204-0.409,0.34-1.294,0.34h-0.953c-0.659,0-1.158-0.091-1.362-0.431
		l-3.156-5.223l-0.091,0.023v4.904c0,0.477-0.409,0.727-1.362,0.727h-0.636c-0.954,0-1.362-0.25-1.362-0.727V18.696z"/>
	<path d="M46.97,23.032c3.61,0,5.494,2.157,5.494,6.108s-1.884,6.13-5.494,6.13c-3.61,0-5.518-2.18-5.518-6.13
		S43.36,23.032,46.97,23.032z M49.059,29.14c0-2.271-0.636-3.451-2.089-3.451s-2.112,1.181-2.112,3.451s0.659,3.474,2.112,3.474
		S49.059,31.411,49.059,29.14z"/>
	<path d="M54.844,18.696c0-0.477,0.408-0.727,1.362-0.727h0.636c0.953,0,1.362,0.25,1.362,0.727v12.942
		c0,0.681,0.227,0.977,0.817,0.977c0.204,0,0.477-0.091,0.613-0.091c0.454,0,0.704,1.453,0.704,1.635
		c0,1.044-1.476,1.112-2.18,1.112c-2.134,0-3.314-1.158-3.314-3.678V18.696z"/>
	<path d="M67.624,27.733v-0.749c0-0.863-0.522-1.294-1.771-1.294c-1.658,0-2.634,0.727-2.906,0.727
		c-0.477,0-1.181-1.339-1.181-1.816c0-0.772,1.816-1.567,4.336-1.567c3.587,0,4.881,1.59,4.881,3.792v4.269
		c0,2.339,0.272,2.815,0.272,3.292c0,0.545-1.975,0.727-2.543,0.727c-0.727,0-0.771-0.953-0.908-1.566
		c-0.159,0.295-1.249,1.726-3.337,1.726c-2.452,0-3.36-1.453-3.36-3.315S61.858,27.733,67.624,27.733z M65.581,32.615
		c0.862,0,1.68-0.613,2.043-1.431v-1.249c-2.157,0-3.179,0.591-3.179,1.681C64.446,32.183,64.832,32.615,65.581,32.615z"/>
	<path d="M74.023,18.696c0-0.477,0.409-0.727,1.362-0.727h0.636c0.954,0,1.362,0.25,1.362,0.727v5.88
		c0.704-0.84,1.839-1.544,3.202-1.544c2.271,0,3.428,1.158,3.428,3.679v7.697c0,0.477-0.409,0.727-1.362,0.727h-0.636
		c-0.954,0-1.362-0.25-1.362-0.727V27.21c0-0.885-0.454-1.407-1.453-1.407c-0.931,0-1.544,0.794-1.816,1.316v7.289
		c0,0.477-0.409,0.727-1.362,0.727h-0.636c-0.954,0-1.362-0.25-1.362-0.727V18.696z"/>
	<path d="M95.269,22.17h-3.61c-0.477,0-0.681-0.341-0.681-1.136v-0.704c0-0.794,0.205-1.135,0.681-1.135h10.739
		c0.477,0,0.682,0.341,0.682,1.135v0.704c0,0.795-0.205,1.136-0.682,1.136h-3.61v12.238c0,0.477-0.409,0.727-1.362,0.727h-0.794
		c-0.954,0-1.362-0.25-1.362-0.727V22.17z"/>
	<path d="M104.596,20.535v-1.839c0-0.477,0.409-0.727,1.362-0.727h0.636c0.954,0,1.362,0.25,1.362,0.727v1.839
		c0,0.477-0.408,0.727-1.362,0.727h-0.636C105.005,21.262,104.596,21.012,104.596,20.535z M104.596,23.896
		c0-0.477,0.409-0.727,1.362-0.727h0.636c0.954,0,1.362,0.25,1.362,0.727v10.512c0,0.477-0.408,0.727-1.362,0.727h-0.636
		c-0.953,0-1.362-0.25-1.362-0.727V23.896z"/>
	<path d="M110.679,27.21c0-2.271-0.272-2.747-0.272-3.201c0-0.545,1.975-0.727,2.543-0.727c0.727,0,0.772,0.908,0.908,1.476
		c0.659-0.862,1.907-1.726,3.383-1.726c2.271,0,3.337,1.158,3.337,3.679v7.697c0,0.477-0.409,0.727-1.362,0.727h-0.636
		c-0.954,0-1.362-0.25-1.362-0.727V27.21c0-0.885-0.363-1.407-1.362-1.407c-0.931,0-1.544,0.794-1.816,1.316v7.289
		c0,0.477-0.409,0.727-1.362,0.727h-0.636c-0.954,0-1.362-0.25-1.362-0.727V27.21z"/>
	<path d="M124.525,34.135l0.023-0.091c-0.636-0.318-0.976-0.954-0.976-1.703c0-0.772,0.499-1.431,1.362-1.885
		c-1.113-0.613-1.839-1.703-1.839-3.383c0-2.929,2.18-4.042,4.881-4.042c0.613,0,1.204,0.068,1.749,0.182h3.656
		c0.477,0,0.681,0.341,0.681,1.136v0.386c0,0.749-0.182,1.067-0.545,1.067c-0.159,0-0.771-0.046-0.976-0.091l-0.045,0.091
		c0.204,0.272,0.363,0.84,0.363,1.271c0,2.838-2.043,4.019-4.632,4.019c-0.931,0-1.385,0.204-1.385,0.613
		c0,1.544,6.879-0.137,6.879,4.336c0,2.338-2.338,3.86-5.858,3.86c-3.655,0-5.404-1.067-5.404-3.133
		C122.459,35.589,123.185,34.657,124.525,34.135z M128.113,37.246c1.566,0,2.338-0.432,2.338-1.113c0-0.704-0.908-0.954-3.497-1.135
		c-0.795,0.272-1.226,0.772-1.226,1.226C125.728,36.837,126.432,37.246,128.113,37.246z M129.679,27.074
		c0-1.136-0.772-1.612-1.703-1.612c-0.931,0-1.703,0.477-1.703,1.612c0,1.135,0.772,1.589,1.703,1.589
		C128.907,28.663,129.679,28.209,129.679,27.074z"/>
	<path d="M136.917,34.135l0.023-0.091c-0.636-0.318-0.976-0.954-0.976-1.703c0-0.772,0.499-1.431,1.362-1.885
		c-1.113-0.613-1.839-1.703-1.839-3.383c0-2.929,2.18-4.042,4.881-4.042c0.613,0,1.204,0.068,1.749,0.182h3.656
		c0.477,0,0.681,0.341,0.681,1.136v0.386c0,0.749-0.182,1.067-0.545,1.067c-0.159,0-0.771-0.046-0.976-0.091l-0.045,0.091
		c0.204,0.272,0.363,0.84,0.363,1.271c0,2.838-2.043,4.019-4.632,4.019c-0.931,0-1.385,0.204-1.385,0.613
		c0,1.544,6.879-0.137,6.879,4.336c0,2.338-2.338,3.86-5.858,3.86c-3.655,0-5.404-1.067-5.404-3.133
		C134.851,35.589,135.578,34.657,136.917,34.135z M140.505,37.246c1.566,0,2.338-0.432,2.338-1.113c0-0.704-0.908-0.954-3.497-1.135
		c-0.795,0.272-1.226,0.772-1.226,1.226C138.121,36.837,138.824,37.246,140.505,37.246z M142.072,27.074
		c0-1.136-0.772-1.612-1.703-1.612c-0.931,0-1.703,0.477-1.703,1.612c0,1.135,0.772,1.589,1.703,1.589
		C141.3,28.663,142.072,28.209,142.072,27.074z"/>
	<path d="M148.038,20.535v-1.839c0-0.477,0.409-0.727,1.362-0.727h0.636c0.954,0,1.362,0.25,1.362,0.727v1.839
		c0,0.477-0.408,0.727-1.362,0.727h-0.636C148.448,21.262,148.038,21.012,148.038,20.535z M148.038,23.896
		c0-0.477,0.409-0.727,1.362-0.727h0.636c0.954,0,1.362,0.25,1.362,0.727v10.512c0,0.477-0.408,0.727-1.362,0.727h-0.636
		c-0.953,0-1.362-0.25-1.362-0.727V23.896z"/>
	<path d="M162.634,22.17h-3.61c-0.477,0-0.681-0.341-0.681-1.136v-0.704c0-0.794,0.204-1.135,0.681-1.135h10.74
		c0.477,0,0.681,0.341,0.681,1.135v0.704c0,0.795-0.204,1.136-0.681,1.136h-3.61v12.238c0,0.477-0.409,0.727-1.362,0.727h-0.795
		c-0.953,0-1.362-0.25-1.362-0.727V22.17z"/>
	<path d="M177.093,23.032c3.565,0,4.904,2.702,4.904,5.858c0,0.386-0.862,1.339-1.158,1.339h-5.79
		c0.159,1.816,1.135,2.384,2.611,2.384c1.43,0,2.429-0.704,2.748-0.704c0.499,0,1.181,1.271,1.181,1.726
		c0,1.135-2.815,1.635-4.087,1.635c-4.11,0-5.926-2.384-5.926-6.04C171.576,24.758,173.846,23.032,177.093,23.032z M178.728,27.983
		c0-1.317-0.499-2.293-1.635-2.293c-0.953,0-1.771,0.545-2.043,2.293H178.728z"/>
	<path d="M184.354,18.696c0-0.477,0.409-0.727,1.362-0.727h0.636c0.954,0,1.362,0.25,1.362,0.727v8.991l0.091,0.023l2.748-4.11
		c0.272-0.386,0.727-0.431,1.385-0.431h0.84c0.863,0,1.271,0.136,1.271,0.34c0,0.114-0.068,0.272-0.204,0.454l-3.156,4.496
		l3.701,5.858c0.113,0.205,0.182,0.34,0.182,0.477c0,0.204-0.409,0.34-1.294,0.34h-0.954c-0.658,0-1.158-0.091-1.362-0.431
		l-3.156-5.223l-0.091,0.023v4.904c0,0.477-0.409,0.727-1.362,0.727h-0.636c-0.954,0-1.362-0.25-1.362-0.727V18.696z"/>
	<path d="M196.089,27.21c0-2.271-0.272-2.747-0.272-3.201c0-0.545,1.976-0.727,2.543-0.727c0.727,0,0.772,0.908,0.908,1.476
		c0.658-0.862,1.907-1.726,3.383-1.726c2.271,0,3.338,1.158,3.338,3.679v7.697c0,0.477-0.409,0.727-1.362,0.727h-0.636
		c-0.954,0-1.362-0.25-1.362-0.727V27.21c0-0.885-0.363-1.407-1.362-1.407c-0.931,0-1.544,0.794-1.816,1.316v7.289
		c0,0.477-0.409,0.727-1.362,0.727h-0.636c-0.954,0-1.362-0.25-1.362-0.727V27.21z"/>
	<path d="M213.794,23.032c3.61,0,5.495,2.157,5.495,6.108s-1.885,6.13-5.495,6.13s-5.517-2.18-5.517-6.13
		S210.184,23.032,213.794,23.032z M215.883,29.14c0-2.271-0.636-3.451-2.089-3.451s-2.111,1.181-2.111,3.451
		s0.658,3.474,2.111,3.474S215.883,31.411,215.883,29.14z"/>
	<path d="M221.669,18.696c0-0.477,0.408-0.727,1.362-0.727h0.636c0.953,0,1.362,0.25,1.362,0.727v12.942
		c0,0.681,0.227,0.977,0.817,0.977c0.204,0,0.477-0.091,0.612-0.091c0.455,0,0.704,1.453,0.704,1.635
		c0,1.044-1.476,1.112-2.18,1.112c-2.134,0-3.314-1.158-3.314-3.678V18.696z"/>
	<path d="M233.449,23.032c3.61,0,5.495,2.157,5.495,6.108s-1.885,6.13-5.495,6.13c-3.609,0-5.518-2.18-5.518-6.13
		S229.84,23.032,233.449,23.032z M235.538,29.14c0-2.271-0.636-3.451-2.089-3.451s-2.111,1.181-2.111,3.451s0.658,3.474,2.111,3.474
		S235.538,31.411,235.538,29.14z"/>
	<path d="M242.505,34.135l0.022-0.091c-0.636-0.318-0.977-0.954-0.977-1.703c0-0.772,0.5-1.431,1.362-1.885
		c-1.112-0.613-1.839-1.703-1.839-3.383c0-2.929,2.18-4.042,4.882-4.042c0.612,0,1.203,0.068,1.748,0.182h3.655
		c0.477,0,0.682,0.341,0.682,1.136v0.386c0,0.749-0.182,1.067-0.545,1.067c-0.159,0-0.772-0.046-0.977-0.091l-0.045,0.091
		c0.204,0.272,0.363,0.84,0.363,1.271c0,2.838-2.044,4.019-4.633,4.019c-0.931,0-1.385,0.204-1.385,0.613
		c0,1.544,6.88-0.137,6.88,4.336c0,2.338-2.339,3.86-5.858,3.86c-3.655,0-5.403-1.067-5.403-3.133
		C240.439,35.589,241.165,34.657,242.505,34.135z M246.092,37.246c1.566,0,2.339-0.432,2.339-1.113c0-0.704-0.908-0.954-3.497-1.135
		c-0.794,0.272-1.226,0.772-1.226,1.226C243.708,36.837,244.412,37.246,246.092,37.246z M247.658,27.074
		c0-1.136-0.771-1.612-1.702-1.612s-1.703,0.477-1.703,1.612c0,1.135,0.772,1.589,1.703,1.589S247.658,28.209,247.658,27.074z"/>
	<path d="M253.626,20.535v-1.839c0-0.477,0.408-0.727,1.362-0.727h0.636c0.953,0,1.362,0.25,1.362,0.727v1.839
		c0,0.477-0.409,0.727-1.362,0.727h-0.636C254.034,21.262,253.626,21.012,253.626,20.535z M253.626,23.896
		c0-0.477,0.408-0.727,1.362-0.727h0.636c0.953,0,1.362,0.25,1.362,0.727v10.512c0,0.477-0.409,0.727-1.362,0.727h-0.636
		c-0.954,0-1.362-0.25-1.362-0.727V23.896z"/>
	<path d="M265.315,20.104c0-0.636,0.272-0.908,0.908-0.908h4.496c3.837,0,5.358,1.635,5.358,4.019c0,1.544-1.09,2.884-2.452,3.451
		l0.022,0.091c1.816,0.363,3.065,1.976,3.065,3.724c0,2.929-1.84,4.609-5.677,4.609h-4.813c-0.636,0-0.908-0.272-0.908-0.908V20.104
		z M270.378,25.531c1.362,0,2.111-0.75,2.111-1.703c0-1.112-0.681-1.68-2.065-1.68h-1.612v3.383H270.378z M271.036,32.115
		c1.317,0,2.089-0.658,2.089-1.839s-0.885-1.771-2.452-1.771h-1.861v3.61H271.036z"/>
	<path d="M284.678,27.733v-0.749c0-0.863-0.521-1.294-1.771-1.294c-1.657,0-2.634,0.727-2.906,0.727
		c-0.478,0-1.181-1.339-1.181-1.816c0-0.772,1.816-1.567,4.336-1.567c3.588,0,4.882,1.59,4.882,3.792v4.269
		c0,2.339,0.272,2.815,0.272,3.292c0,0.545-1.975,0.727-2.543,0.727c-0.727,0-0.771-0.953-0.908-1.566
		c-0.158,0.295-1.248,1.726-3.338,1.726c-2.451,0-3.359-1.453-3.359-3.315S278.911,27.733,284.678,27.733z M282.635,32.615
		c0.862,0,1.68-0.613,2.043-1.431v-1.249c-2.156,0-3.179,0.591-3.179,1.681C281.499,32.183,281.885,32.615,282.635,32.615z"/>
	<path d="M290.987,27.21c0-2.271-0.273-2.747-0.273-3.201c0-0.545,1.976-0.727,2.543-0.727c0.727,0,0.772,0.908,0.908,1.476
		c0.659-0.862,1.908-1.726,3.384-1.726c2.271,0,3.337,1.158,3.337,3.679v7.697c0,0.477-0.408,0.727-1.361,0.727h-0.637
		c-0.953,0-1.361-0.25-1.361-0.727V27.21c0-0.885-0.363-1.407-1.363-1.407c-0.931,0-1.543,0.794-1.816,1.316v7.289
		c0,0.477-0.408,0.727-1.361,0.727h-0.637c-0.953,0-1.361-0.25-1.361-0.727V27.21z"/>
	<path d="M303.174,29.14c0-3.701,1.725-6.108,4.79-6.108c1.067,0,1.839,0.363,2.316,0.704v-5.041c0-0.477,0.408-0.727,1.362-0.727
		h0.636c0.953,0,1.362,0.25,1.362,0.727v12.397c0,2.339,0.272,2.815,0.272,3.292c0,0.545-1.976,0.727-2.543,0.727
		c-0.727,0-0.772-0.953-0.908-1.544c-0.522,0.977-1.635,1.703-3.043,1.703C304.967,35.271,303.174,33.091,303.174,29.14z
		 M310.281,31.184V26.12c-0.363-0.204-0.886-0.431-1.59-0.431c-1.431,0-2.111,1.181-2.111,3.451c0,2.203,0.591,3.383,1.839,3.383
		C309.281,32.524,309.871,31.888,310.281,31.184z"/>
	<path d="M316.384,23.896c0-0.477,0.408-0.727,1.362-0.727h0.636c0.953,0,1.362,0.25,1.362,0.727v7.197
		c0,0.886,0.363,1.408,1.362,1.408c0.931,0,1.544-0.794,1.816-1.317v-7.288c0-0.477,0.408-0.727,1.362-0.727h0.636
		c0.953,0,1.362,0.25,1.362,0.727v7.197c0,2.339,0.272,2.815,0.272,3.292c0,0.545-1.976,0.727-2.543,0.727
		c-0.727,0-0.772-0.953-0.908-1.566c-0.659,0.863-1.907,1.726-3.384,1.726c-2.27,0-3.337-1.158-3.337-3.678V23.896z"/>
	<path d="M329.094,27.21c0-2.271-0.271-2.747-0.271-3.201c0-0.545,1.975-0.727,2.543-0.727c0.727,0,0.771,0.908,0.908,1.476
		c0.658-0.862,1.906-1.726,3.383-1.726c2.271,0,3.338,1.158,3.338,3.679v7.697c0,0.477-0.409,0.727-1.363,0.727h-0.635
		c-0.954,0-1.363-0.25-1.363-0.727V27.21c0-0.885-0.363-1.407-1.361-1.407c-0.932,0-1.545,0.794-1.816,1.316v7.289
		c0,0.477-0.409,0.727-1.363,0.727h-0.635c-0.954,0-1.363-0.25-1.363-0.727V27.21z"/>
	<path d="M342.941,34.135l0.022-0.091c-0.636-0.318-0.977-0.954-0.977-1.703c0-0.772,0.5-1.431,1.362-1.885
		c-1.112-0.613-1.839-1.703-1.839-3.383c0-2.929,2.18-4.042,4.882-4.042c0.612,0,1.203,0.068,1.748,0.182h3.655
		c0.477,0,0.682,0.341,0.682,1.136v0.386c0,0.749-0.182,1.067-0.545,1.067c-0.159,0-0.772-0.046-0.977-0.091l-0.045,0.091
		c0.204,0.272,0.363,0.84,0.363,1.271c0,2.838-2.044,4.019-4.633,4.019c-0.931,0-1.385,0.204-1.385,0.613
		c0,1.544,6.88-0.137,6.88,4.336c0,2.338-2.339,3.86-5.858,3.86c-3.655,0-5.403-1.067-5.403-3.133
		C340.874,35.589,341.601,34.657,342.941,34.135z M346.528,37.246c1.566,0,2.339-0.432,2.339-1.113c0-0.704-0.908-0.954-3.497-1.135
		c-0.794,0.272-1.226,0.772-1.226,1.226C344.144,36.837,344.848,37.246,346.528,37.246z M348.094,27.074
		c0-1.136-0.771-1.612-1.702-1.612s-1.703,0.477-1.703,1.612c0,1.135,0.772,1.589,1.703,1.589S348.094,28.209,348.094,27.074z"/>
</g>
</svg>
